HIERARCHY
ROOT Hips
{
  OFFSET 0 89.5177 0.535
  CHANNELS 6 Xposition Yposition Zposition Zrotation Xrotation Yrotation
  JOINT Spine
  {
    OFFSET 12.0259 -0.162855 1.69034e-005
    CHANNELS 3 Zrotation Xrotation Yrotation
    JOINT Spine1
    {
      OFFSET 15.3169 -0.0121922 0
      CHANNELS 3 Zrotation Xrotation Yrotation
      JOINT Spine2
      {
        OFFSET 15.3176 -0.0121908 0
        CHANNELS 3 Zrotation Xrotation Yrotation
        JOINT Neck
        {
          OFFSET 19.9142 1.56338 0
          CHANNELS 3 Zrotation Xrotation Yrotation
          JOINT Head
          {
            OFFSET 6.92651 0 0
            CHANNELS 3 Zrotation Xrotation Yrotation
            End Site
            {
              OFFSET 20.7666 0 0
            }
          }
          JOINT LeftShoulder
          {
            OFFSET -6.20654 0.708824 7.28219
            CHANNELS 3 Zrotation Xrotation Yrotation
            JOINT LeftArm
            {
              OFFSET 14.108 0 -1.52588e-005
              CHANNELS 3 Zrotation Xrotation Yrotation
              JOINT LeftForeArm
              {
                OFFSET 28.5802 0 0
                CHANNELS 3 Zrotation Xrotation Yrotation
                JOINT LeftHand
                {
                  OFFSET 27.092 0 0
                  CHANNELS 3 Zrotation Xrotation Yrotation
                  End Site
                  {
                    OFFSET 9.55928 -0.186424 0.145352
                  }
                }
              }
            }
          }
          JOINT RightShoulder
          {
            OFFSET -6.20654 0.708866 -7.28218
            CHANNELS 3 Zrotation Xrotation Yrotation
            JOINT RightArm
            {
              OFFSET 14.108 0 1.52588e-005
              CHANNELS 3 Zrotation Xrotation Yrotation
              JOINT RightForeArm
              {
                OFFSET 28.5802 0 0
                CHANNELS 3 Zrotation Xrotation Yrotation
                JOINT RightHand
                {
                  OFFSET 27.092 0 0
                  CHANNELS 3 Zrotation Xrotation Yrotation
                  End Site
                  {
                    OFFSET 9.55929 -0.186417 -0.145354
                  }
                }
              }
            }
          }
        }
      }
    }
  }
  JOINT LeftUpLeg
  {
    OFFSET 0.005 -0.535 8.837
    CHANNELS 3 Zrotation Xrotation Yrotation
    JOINT LeftLeg
    {
      OFFSET 39.9035 0 0
      CHANNELS 3 Zrotation Xrotation Yrotation
      JOINT LeftFoot
      {
        OFFSET 39.6689 0 0
        CHANNELS 3 Zrotation Xrotation Yrotation
        JOINT LeftToe
        {
          OFFSET 10.1624 13.6296 0
          CHANNELS 3 Zrotation Xrotation Yrotation
          End Site
          {
            OFFSET 8.38147 0 0
          }
        }
      }
    }
  }
  JOINT RightUpLeg
  {
    OFFSET 0.005 -0.535 -8.837
    CHANNELS 3 Zrotation Xrotation Yrotation
    JOINT RightLeg
    {
      OFFSET 39.9035 0 0
      CHANNELS 3 Zrotation Xrotation Yrotation
      JOINT RightFoot
      {
        OFFSET 39.6689 0 0
        CHANNELS 3 Zrotation Xrotation Yrotation
        JOINT RightToe
        {
          OFFSET 10.1624 13.6296 0
          CHANNELS 3 Zrotation Xrotation Yrotation
          End Site
          {
            OFFSET 8.38147 0 0
          }
        }
      }
    }
  }
}
MOTION
Frames:	15
Frame Time:	0.0333333
439.398 87.7761 -34.1147 151.878 -82.2031 60.9724 -1.4812 -0.292098 -0.765758 -2.96623 -0.563816 -1.53865 -2.96623 -0.563816 -1.53866 -8.30728e-012 -9.0191e-006 -5.27751e-005 10.6853 4.92534 -0.977641 177.917 -19.1157 -96.336 -35.2754 -47.2895 -12.7139 -9.74493e-006 0 -1.19271e-015 -41.8335 -29.4978 -32.2462 178.143 7.76043 103.498 75.6172 67.6671 -83.1777 -1.53084 3.97569e-016 -0 -37.488 10.4212 18.8238 -13.6629 3.8789 -178.021 -24.5163 -4.77083e-015 -1.59028e-015 19.6912 5.17019 -2.68164 90 3.72721e-016 -0 -12.3811 -2.72089 -177.612 -22.2379 0 -6.95746e-016 17.9325 -3.3225 -0.311103 90 5.59082e-016 7.95139e-016 
439.438 87.7737 -34.0806 152.926 -82.2574 61.9799 -1.48793 -0.293143 -0.765942 -2.9797 -0.565809 -1.53908 -2.9797 -0.565809 -1.53909 -8.30748e-012 -9.0191e-006 -5.27751e-005 10.5963 4.40968 -0.835951 177.928 -19.0705 -96.3183 -35.146 -47.2165 -12.595 -9.89222e-006 3.18055e-015 -3.97569e-016 -41.6962 -29.6857 -32.2713 178.15 7.74667 103.479 75.445 67.6407 -83.0652 -1.5827 0 -5.96354e-016 -37.4504 10.494 18.7708 -13.7315 4.014 -177.926 -24.5856 0 3.97569e-016 19.7267 5.17562 -2.69925 90 -9.93923e-017 1.19271e-015 -12.464 -2.66373 -177.534 -22.2955 0 -3.97569e-016 17.9782 -3.37837 -0.308104 90 5.59082e-016 1.59028e-015 
439.476 87.7706 -34.0526 154.051 -82.343 63.0613 -1.48485 -0.291439 -0.762077 -2.97336 -0.555883 -1.5312 -2.97336 -0.555882 -1.53121 -8.30758e-012 -9.0191e-006 -5.27751e-005 10.5196 3.99963 -0.788042 177.925 -18.9715 -96.36 -35.0121 -47.3084 -12.4981 -1.00402e-005 3.18055e-015 2.78299e-015 -41.5072 -29.628 -32.1409 178.159 7.69713 103.492 75.4457 67.6325 -83.1082 -1.59204 7.95139e-016 -0 -37.3627 10.3618 18.7754 -13.784 4.18631 -177.821 -24.6834 0 -3.97569e-016 19.7818 5.1957 -2.74486 90 2.85753e-016 -0 -12.525 -2.58138 -177.454 -22.3644 0 -0 18.0229 -3.43849 -0.280394 90 1.86361e-016 -0 
439.507 87.7653 -34.0164 154.988 -82.4403 63.9545 -1.47027 -0.289201 -0.75464 -2.94426 -0.558456 -1.51629 -2.94426 -0.558456 -1.5163 -8.30738e-012 -9.0191e-006 -5.27751e-005 10.47 3.70484 -0.888794 177.936 -18.905 -96.3477 -34.9029 -47.1146 -12.4541 -1.01888e-005 -3.18055e-015 -0 -41.6976 -29.7394 -32.3395 178.16 7.67922 103.515 75.7649 67.6306 -83.5295 -1.61239 -3.97569e-016 -0 -37.3986 10.4581 18.7873 -13.7939 4.26748 -177.736 -24.7321 0 3.97569e-016 19.7438 5.14136 -2.73125 90 -3.72721e-016 3.97569e-016 -12.5749 -2.53152 -177.379 -22.4581 1.98785e-016 -3.47873e-016 18.0867 -3.50214 -0.251508 90 2.48481e-016 7.95139e-016 
439.529 87.7594 -33.977 155.917 -82.5455 64.8542 -1.45958 -0.288094 -0.745221 -2.92272 -0.550756 -1.4973 -2.92272 -0.550756 -1.49731 -8.30728e-012 -9.0191e-006 -5.27751e-005 10.5496 3.57486 -1.04353 177.939 -18.8621 -96.3514 -34.8071 -47.0002 -12.3786 -1.03375e-005 -1.27222e-014 -2.78299e-015 -41.747 -29.9231 -32.5087 178.155 7.65708 103.588 76.1152 67.6097 -83.9566 -1.61606 3.97569e-016 5.96354e-016 -37.4798 10.3767 18.6898 -13.7633 4.28627 -177.69 -24.7293 0 -3.97569e-016 19.6724 5.03956 -2.65403 90 -1.86361e-016 3.97569e-016 -12.5987 -2.42111 -177.313 -22.5117 1.98785e-016 -2.48481e-016 18.1025 -3.51768 -0.279049 90 8.69683e-017 -0 
439.538 87.7548 -33.9317 156.739 -82.6283 65.6635 -1.45115 -0.286947 -0.743867 -2.90563 -0.537888 -1.49439 -2.90563 -0.537887 -1.4944 -8.30728e-012 -9.0191e-006 -5.27751e-005 10.6429 3.63775 -1.1416 177.91 -18.856 -96.4433 -34.8162 -47.0786 -12.3241 -1.04863e-005 -3.18055e-015 7.95139e-016 -41.7806 -29.8309 -32.4745 178.162 7.60844 103.626 76.167 67.594 -84.0289 -1.61185 -3.97569e-016 1.98785e-016 -37.4004 10.3583 18.7898 -13.7502 4.3162 -177.67 -24.725 -1.59028e-015 -0 19.5949 4.95011 -2.59035 90 -4.34841e-016 -7.95139e-016 -12.668 -2.37794 -177.289 -22.6287 1.98785e-016 -6.4605e-016 18.1688 -3.58194 -0.251619 90 9.44227e-016 7.95139e-016 
439.542 87.7531 -33.8899 157.356 -82.6866 66.2508 -1.44117 -0.285818 -0.736092 -2.88552 -0.530618 -1.4787 -2.88552 -0.530618 -1.47871 -8.30758e-012 -9.0191e-006 -5.27751e-005 10.7448 3.81554 -1.24817 177.904 -18.8819 -96.452 -34.7891 -46.5709 -12.2747 -1.06348e-005 1.27222e-014 2.38542e-015 -41.7494 -30.2 -32.738 178.157 7.59254 103.689 76.4333 67.5614 -84.2952 -1.57318 0 3.97569e-016 -37.3812 10.449 18.8969 -13.7859 4.37391 -177.626 -24.7905 -1.59028e-015 3.97569e-016 19.5952 4.93626 -2.59159 90 -3.10601e-016 -3.97569e-016 -12.7028 -2.33808 -177.249 -22.6667 -3.97569e-016 -1.98785e-016 18.1676 -3.60915 -0.237815 90 1.98785e-016 -0 
439.526 87.762 -33.8497 157.774 -82.7035 66.679 -1.44313 -0.284764 -0.735693 -2.8833 -0.528413 -1.47787 -2.8833 -0.528413 -1.47788 -8.30748e-012 -9.0191e-006 -5.27751e-005 10.8651 4.00043 -1.32347 177.903 -18.8747 -96.4587 -34.8349 -46.4689 -12.3277 -1.07828e-005 -3.18055e-015 -0 -41.8309 -30.2489 -32.8166 178.156 7.58472 103.709 76.6234 67.5448 -84.465 -1.55591 3.97569e-016 -1.98785e-016 -37.3908 10.4502 18.9133 -13.7868 4.4507 -177.634 -24.7413 0 7.95139e-016 19.5317 4.92008 -2.59746 90 -2.11209e-016 3.97569e-016 -12.7243 -2.27014 -177.261 -22.63 0 -5.96354e-016 18.1185 -3.60642 -0.244679 90 -3.97569e-016 7.95139e-016 
439.504 87.7701 -33.811 157.995 -82.6974 66.9092 -1.44679 -0.283844 -0.735716 -2.88989 -0.532209 -1.47792 -2.88989 -0.532209 -1.47793 -8.30758e-012 -9.0191e-006 -5.27751e-005 11.0408 4.23837 -1.44589 177.885 -18.8708 -96.5124 -34.8246 -46.4956 -12.3261 -1.09301e-005 -6.36111e-015 -1.59028e-015 -41.7516 -30.1636 -32.6613 178.156 7.56544 103.74 76.4759 67.535 -84.2843 -1.49885 -3.97569e-016 -0 -37.4113 10.446 18.9629 -13.8156 4.49599 -177.655 -24.7273 7.95139e-016 -3.97569e-016 19.5489 4.94679 -2.58028 90 2.36057e-016 -0 -12.779 -2.30395 -177.293 -22.6507 4.96962e-016 3.47873e-016 18.1306 -3.64957 -0.204335 90 -2.48481e-016 -0 
439.472 87.7781 -33.7675 158.09 -82.667 67.0183 -1.44875 -0.283115 -0.735786 -2.90088 -0.537426 -1.47809 -2.90088 -0.537426 -1.4781 -8.30748e-012 -9.0191e-006 -5.27751e-005 11.1295 4.47265 -1.48462 177.879 -18.8387 -96.5439 -34.7923 -46.5772 -12.3473 -1.10764e-005 0 -7.95139e-016 -41.788 -30.1753 -32.7238 178.157 7.57423 103.717 76.338 67.5487 -84.1117 -1.54403 -3.97569e-016 -0 -37.334 10.4443 18.9881 -13.8456 4.46999 -177.704 -24.6732 1.59028e-015 3.97569e-016 19.509 4.94025 -2.52371 90 1.61513e-016 -0 -12.8417 -2.31473 -177.335 -22.6466 6.95746e-016 -5.46658e-016 18.1013 -3.66473 -0.178588 90 3.72721e-016 1.59028e-015 
439.433 87.786 -33.7342 158.095 -82.6487 67.0315 -1.44871 -0.282635 -0.735904 -2.90317 -0.542724 -1.47837 -2.90317 -0.542724 -1.47838 -8.30768e-012 -9.0191e-006 -5.27751e-005 11.2088 4.65644 -1.51485 177.867 -18.8012 -96.5927 -34.7106 -46.6781 -12.3113 -1.12215e-005 0 -7.95139e-016 -41.8213 -30.1411 -32.7592 178.146 7.61499 103.729 76.4799 67.5699 -84.2589 -1.53916 -3.97569e-016 -0 -37.2722 10.3875 18.8942 -13.8946 4.53875 -177.732 -24.7001 0 -3.97569e-016 19.5824 5.01371 -2.52192 90 -4.96962e-017 7.95139e-016 -12.8611 -2.31376 -177.372 -22.6038 -9.93923e-017 4.96962e-017 18.0506 -3.6589 -0.173261 90 2.73329e-016 7.95139e-016 
439.376 87.7915 -33.6969 157.961 -82.6208 66.9123 -1.44844 -0.282462 -0.736073 -2.90404 -0.54583 -1.47876 -2.90404 -0.54583 -1.47877 -8.30738e-012 -9.0191e-006 -5.27751e-005 11.3346 4.83873 -1.55336 177.86 -18.7245 -96.6407 -34.5772 -46.7574 -12.2448 -1.13652e-005 9.54166e-015 -0 -41.8304 -30.0402 -32.6942 178.152 7.58666 103.732 76.3421 67.5845 -84.0542 -1.54178 3.97569e-016 -1.98785e-016 -37.2908 10.3475 18.8911 -13.9671 4.60381 -177.77 -24.7657 0 -0 19.6537 5.09071 -2.57077 90 1.98785e-016 -3.97569e-016 -12.8702 -2.26216 -177.419 -22.5319 -9.93923e-017 -1.98785e-016 17.9593 -3.61123 -0.208211 90 -3.23025e-016 -0 
439.326 87.792 -33.6638 157.656 -82.6085 66.6 -1.44772 -0.282818 -0.736295 -2.89917 -0.553324 -1.47926 -2.89917 -0.553324 -1.47927 -8.30758e-012 -9.0191e-006 -5.27751e-005 11.4932 5.03645 -1.56774 177.849 -18.7397 -96.6679 -34.5531 -46.6879 -12.1473 -1.15071e-005 3.18055e-015 1.59028e-015 -41.8449 -30.1956 -32.8465 178.15 7.59239 103.735 76.2402 67.605 -83.9444 -1.54439 0 -0 -37.3102 10.4392 18.9479 -14.0478 4.64937 -177.784 -24.8813 3.18055e-015 1.19271e-015 19.7481 5.15463 -2.60319 90 1.2424e-017 3.97569e-016 -12.9124 -2.35586 -177.465 -22.5898 -9.93923e-017 -4.96962e-017 17.9861 -3.64691 -0.135363 90 2.73329e-016 1.59028e-015 
439.274 87.7924 -33.6412 157.35 -82.6156 66.299 -1.44222 -0.283736 -0.736571 -2.88822 -0.558233 -1.47986 -2.88822 -0.558233 -1.47987 -8.30758e-012 -9.0191e-006 -5.27751e-005 11.6941 5.24391 -1.6484 177.824 -18.7327 -96.7482 -34.4667 -46.8732 -12.0174 -1.16471e-005 3.18055e-015 -1.59028e-015 -41.7009 -30.1099 -32.6545 178.134 7.61978 103.803 76.6818 67.5951 -84.4347 -1.53565 1.98785e-016 -0 -37.245 10.3383 18.924 -14.0437 4.60624 -177.836 -24.8946 0 3.97569e-016 19.7439 5.14566 -2.56369 90 1.61513e-016 -3.97569e-016 -12.8946 -2.35137 -177.508 -22.569 0 6.95746e-016 17.9337 -3.62292 -0.130828 90 -4.96962e-017 7.95139e-016 
439.218 87.7926 -33.6249 157.216 -82.6182 66.1702 -1.43536 -0.284991 -0.736905 -2.87434 -0.552484 -1.48057 -2.87434 -0.552484 -1.48058 -8.30758e-012 -9.0191e-006 -5.27751e-005 11.7817 5.41087 -1.73696 177.814 -18.7508 -96.7713 -34.5139 -47.0821 -11.9904 -1.1785e-005 1.27222e-014 -0 -41.6847 -29.9905 -32.5558 178.115 7.65265 103.882 76.8953 67.5617 -84.7242 -1.56767 3.97569e-016 3.97569e-016 -37.2091 10.3256 18.8651 -14.0153 4.52233 -177.903 -24.8506 0 7.95139e-016 19.6911 5.08906 -2.46951 90 2.48481e-017 -0 -12.8871 -2.32879 -177.55 -22.5475 -1.98785e-016 2.98177e-016 17.888 -3.59729 -0.131131 90 -3.72721e-016 -0 
